<?xml version="1.0" encoding="UTF-8" standalone="no"?>
<svg
   xmlns:dc="http://purl.org/dc/elements/1.1/"
   xmlns:cc="http://creativecommons.org/ns#"
   xmlns:rdf="http://www.w3.org/1999/02/22-rdf-syntax-ns#"
   xmlns:svg="http://www.w3.org/2000/svg"
   xmlns="http://www.w3.org/2000/svg"
   xmlns:sodipodi="http://sodipodi.sourceforge.net/DTD/sodipodi-0.dtd"
   xmlns:inkscape="http://www.inkscape.org/namespaces/inkscape"
   viewBox="0 0 500 500"
   version="1.1"
   id="svg4"
   sodipodi:docname="logo.svg"
   width="500"
   height="500"
   inkscape:export-filename="/home/yetendra/Downloads/logo.png"
   inkscape:export-xdpi="19.200001"
   inkscape:export-ydpi="19.200001"
   inkscape:version="1.0.1 (1.0.1+r73)">
  <metadata
     id="metadata10">
    <rdf:RDF>
      <cc:Work
         rdf:about="">
        <dc:format>image/svg+xml</dc:format>
        <dc:type
           rdf:resource="http://purl.org/dc/dcmitype/StillImage" />
      </cc:Work>
    </rdf:RDF>
  </metadata>
  <defs
     id="defs8" />
  <sodipodi:namedview
     pagecolor="#ffffff"
     bordercolor="#666666"
     borderopacity="1"
     objecttolerance="10"
     gridtolerance="10"
     guidetolerance="10"
     inkscape:pageopacity="0"
     inkscape:pageshadow="2"
     inkscape:window-width="959"
     inkscape:window-height="1013"
     id="namedview6"
     showgrid="false"
     inkscape:zoom="0.5814296"
     inkscape:cx="464.07356"
     inkscape:cy="534.17897"
     inkscape:window-x="0"
     inkscape:window-y="0"
     inkscape:window-maximized="0"
     inkscape:current-layer="svg4"
     inkscape:document-rotation="0" />
  <path
     d="M 443.14236,220.21484 C 437.15278,183.88672 409.02778,156.25 375,156.25 c -10.67708,0 -20.74653,2.92969 -29.77431,7.8125 C 330.12153,140.52734 305.64236,125 277.77778,125 c -46.00695,0 -83.33334,41.99219 -83.33334,93.75 0,0.48828 0.17362,1.07422 0.17362,1.5625 -31.77084,7.22656 -55.72917,38.67187 -55.72917,76.5625 0,43.16406 31.07639,78.125 69.44444,78.125 H 430.55556 C 468.92361,375 500,340.03906 500,296.875 c 0,-38.28125 -24.47917,-70.01953 -56.85764,-76.66016 z m -335.41667,33.59375 c -32.465273,-36.52343 -32.465273,-95.99609 0,-132.61718 30.03473,-33.789065 77.34375,-35.937505 109.98264,-7.22657 C 235.06944,101.36719 255.55556,93.75 277.77778,93.75 c 0.60764,0 1.12847,0.19531 1.73611,0.19531 l 7.72569,-26.074215 c 2.95139,-9.96094 -5.46875,-19.335939 -14.32291,-16.015625 L 207.55208,76.367185 176.73611,7.03125 c -4.16667,-9.375 -16.05903,-9.375 -20.22569,0 L 125.69444,76.367185 60.329861,51.85547 C 51.475694,48.535156 43.142361,58.00781 46.09375,67.96875 L 67.881944,141.50391 6.25,176.17187 c -8.3333333,4.68751 -8.3333333,18.06641 0,22.75391 l 61.631944,34.66797 -21.788194,73.53516 c -2.951389,9.96093 5.46875,19.33593 14.322917,16.11328 l 51.388893,-19.23828 c -0.17362,-2.34375 -0.60764,-4.58985 -0.60764,-7.03125 0,-12.20704 1.99652,-23.92579 5.38194,-35.0586 -3.125,-2.63672 -6.16319,-5.07812 -8.85417,-8.10547 z m 60.59028,-56.64062 c 3.73264,-23.92578 13.71528,-45.3125 27.69097,-62.5 C 187.5,128.61328 177.43056,125 166.66667,125 c -30.64236,0 -55.55556,28.02734 -55.55556,62.5 0,18.26172 7.11806,34.57031 18.31597,45.99609 9.80903,-15.52734 23.09028,-28.22265 38.88889,-36.32812 z m 286.97917,211.13281 c -6.59722,-4.19922 -15.10417,-1.75781 -18.92361,5.85938 l -31.77084,62.5 c -3.81944,7.51953 -1.47569,16.99218 5.20834,21.28906 2.17014,1.36719 4.51389,2.05078 6.85764,2.05078 4.7743,0 9.4618,-2.83203 12.06597,-7.91016 l 31.77083,-62.5 c 3.73264,-7.51953 1.4757,-16.99218 -5.20833,-21.28906 z m -83.33333,0 c -6.59723,-4.19922 -15.10417,-1.75781 -18.92362,5.85938 l -31.77083,62.5 c -3.81944,7.51953 -1.47569,16.99218 5.20833,21.28906 2.17014,1.36719 4.51389,2.05078 6.85764,2.05078 4.77431,0 9.46181,-2.83203 12.06598,-7.91016 l 31.77083,-62.5 c 3.73264,-7.51953 1.47569,-16.99218 -5.20833,-21.28906 z m -83.33334,0 c -6.59722,-4.19922 -15.10416,-1.75781 -18.92361,5.85938 l -31.77083,62.5 c -3.81945,7.51953 -1.4757,16.99218 5.20833,21.28906 C 245.3125,499.31641 247.65625,500 250,500 c 4.77431,0 9.46181,-2.83203 12.06597,-7.91016 l 31.77084,-62.5 c 3.73263,-7.51953 1.47569,-16.99218 -5.20834,-21.28906 z m -83.33333,0 c -6.59722,-4.19922 -15.10417,-1.75781 -18.92361,5.85938 l -31.77084,62.5 c -3.81944,7.51953 -1.47569,16.99218 5.20834,21.28906 2.17014,1.36719 4.51389,2.05078 6.85764,2.05078 4.7743,0 9.4618,-2.83203 12.06597,-7.91016 l 31.77083,-62.5 c 3.73264,-7.51953 1.4757,-16.99218 -5.20833,-21.28906 z"
     id="path2"
     style="fill:#407088;stroke-width:0.920712;fill-opacity:1" />
</svg>
